<svg xmlns="http://www.w3.org/2000/svg" width="1440" height="841" viewBox="0 0 1440 841">
    <g fill="#4C596E" fill-opacity=".056" fill-rule="nonzero">
        <path d="M612.826 453.6c-14.647-12.733-16.2-34.929-3.467-49.576 12.733-14.647 34.928-16.199 49.575-3.466 14.647 12.732 16.2 34.928 3.467 49.575-12.733 14.647-34.928 16.199-49.575 3.466zm284.71 22.601a10.66 10.66 0 0 1-9.976 5.763l-56.206-2.297-113.272 130.305c-15.45 17.772-42.38 19.655-60.151 4.206L447.179 430.975c-17.772-15.45-19.655-42.38-4.207-60.151L752.13 15.18a42.637 42.637 0 0 1 60.416-3.976l210.222 182.743c17.771 15.449 19.655 42.38 4.206 60.15l-75.387 86.724c-5.348 6.152-14.67 6.803-20.822 1.456l-19.537-16.983c-6.075-5.367-6.685-14.628-1.367-20.745l53.101-61.086c7.659-8.908 6.72-22.32-2.103-30.076L801.733 75.062c-8.908-7.658-22.32-6.72-30.075 2.103l-264.585 304.37c-7.725 8.886-6.783 22.352 2.103 30.076L668.3 549.936c8.886 7.725 22.352 6.783 30.076-2.103l89.45-102.9-11.3-59.49a10.776 10.776 0 0 1 4.944-11.222l50.059-30.983a10.894 10.894 0 0 1 12.94 1.005l19.006 16.522-37.962 43.67 39.516 34.352 37.962-43.671 18.476 16.06a11.01 11.01 0 0 1 2.589 13.27l-26.52 51.755zM476.826 1074.6c-14.647-12.733-16.2-34.929-3.467-49.576 12.733-14.647 34.928-16.199 49.575-3.466 14.647 12.732 16.2 34.928 3.467 49.575-12.733 14.647-34.928 16.199-49.575 3.466zm284.71 22.601a10.66 10.66 0 0 1-9.976 5.763l-56.206-2.297-113.272 130.305c-15.45 17.772-42.38 19.655-60.151 4.206l-210.752-183.203c-17.772-15.45-19.655-42.38-4.207-60.151L616.13 636.18a42.637 42.637 0 0 1 60.416-3.976l210.222 182.743c17.771 15.449 19.655 42.38 4.206 60.15l-75.387 86.724c-5.348 6.152-14.67 6.803-20.822 1.456l-19.537-16.983c-6.075-5.367-6.685-14.628-1.367-20.745l53.101-61.086c7.659-8.908 6.72-22.32-2.103-30.076L665.733 696.062c-8.908-7.658-22.32-6.72-30.075 2.103l-264.585 304.37c-7.725 8.886-6.783 22.352 2.103 30.076L532.3 1170.936c8.886 7.725 22.352 6.783 30.076-2.103l89.45-102.9-11.3-59.49a10.776 10.776 0 0 1 4.944-11.222l50.059-30.983a10.894 10.894 0 0 1 12.94 1.005l19.006 16.522-37.962 43.67 39.516 34.352 37.962-43.671 18.476 16.06a11.01 11.01 0 0 1 2.589 13.27l-26.52 51.755zM42.826 453.6c-14.647-12.733-16.2-34.929-3.467-49.576 12.733-14.647 34.928-16.199 49.575-3.466 14.647 12.732 16.2 34.928 3.467 49.575-12.733 14.647-34.928 16.199-49.575 3.466zm284.71 22.601a10.66 10.66 0 0 1-9.976 5.763l-56.206-2.297-113.272 130.305c-15.45 17.772-42.38 19.655-60.151 4.206l-210.752-183.203c-17.772-15.45-19.655-42.38-4.207-60.151L182.13 15.18a42.637 42.637 0 0 1 60.416-3.976l210.222 182.743c17.771 15.449 19.655 42.38 4.206 60.15l-75.387 86.724c-5.348 6.152-14.67 6.803-20.822 1.456l-19.537-16.983c-6.075-5.367-6.685-14.628-1.367-20.745l53.101-61.086c7.659-8.908 6.72-22.32-2.103-30.076L231.733 75.062c-8.908-7.658-22.32-6.72-30.075 2.103l-264.585 304.37c-7.725 8.886-6.783 22.352 2.103 30.076L98.3 549.936c8.886 7.725 22.352 6.783 30.076-2.103l89.45-102.9-11.3-59.49a10.776 10.776 0 0 1 4.944-11.222l50.059-30.983a10.894 10.894 0 0 1 12.94 1.005l19.006 16.522-37.962 43.67 39.516 34.352 37.962-43.671 18.476 16.06a11.01 11.01 0 0 1 2.589 13.27l-26.52 51.755zM-93.174 1074.6c-14.647-12.733-16.2-34.929-3.467-49.576 12.733-14.647 34.928-16.199 49.575-3.466 14.647 12.732 16.2 34.928 3.467 49.575-12.733 14.647-34.928 16.199-49.575 3.466zm284.71 22.601a10.66 10.66 0 0 1-9.976 5.763l-56.206-2.297-113.272 130.305c-15.45 17.772-42.38 19.655-60.151 4.206l-210.752-183.203c-17.772-15.45-19.655-42.38-4.207-60.151L46.13 636.18a42.637 42.637 0 0 1 60.416-3.976l210.222 182.743c17.771 15.449 19.655 42.38 4.206 60.15l-75.387 86.724c-5.348 6.152-14.67 6.803-20.822 1.456l-19.537-16.983c-6.075-5.367-6.685-14.628-1.367-20.745l53.101-61.086c7.659-8.908 6.72-22.32-2.103-30.076L95.733 696.062c-8.908-7.658-22.32-6.72-30.075 2.103l-264.585 304.37c-7.725 8.886-6.783 22.352 2.103 30.076L-37.7 1170.936c8.886 7.725 22.352 6.783 30.076-2.103l89.45-102.9-11.3-59.49a10.776 10.776 0 0 1 4.944-11.222l50.059-30.983a10.894 10.894 0 0 1 12.94 1.005l19.006 16.522-37.962 43.67 39.516 34.352 37.962-43.671 18.476 16.06a11.01 11.01 0 0 1 2.589 13.27l-26.52 51.755zM1586.826 1044.6c-14.647-12.733-16.2-34.929-3.467-49.576 12.733-14.647 34.928-16.199 49.575-3.466 14.647 12.732 16.2 34.928 3.467 49.575-12.733 14.647-34.928 16.199-49.575 3.466zm284.71 22.601a10.66 10.66 0 0 1-9.976 5.763l-56.206-2.297-113.272 130.305c-15.45 17.772-42.38 19.655-60.151 4.206l-210.752-183.203c-17.772-15.45-19.655-42.38-4.207-60.151L1726.13 606.18a42.637 42.637 0 0 1 60.416-3.976l210.222 182.743c17.771 15.449 19.655 42.38 4.206 60.15l-75.387 86.724c-5.348 6.152-14.67 6.803-20.822 1.456l-19.537-16.983c-6.075-5.367-6.685-14.628-1.367-20.745l53.101-61.086c7.659-8.908 6.72-22.32-2.103-30.076l-159.125-138.325c-8.908-7.658-22.32-6.72-30.075 2.103l-264.585 304.37c-7.725 8.886-6.783 22.352 2.103 30.076l159.124 138.325c8.886 7.725 22.352 6.783 30.076-2.103l89.45-102.9-11.3-59.49a10.776 10.776 0 0 1 4.944-11.222l50.059-30.983a10.894 10.894 0 0 1 12.94 1.005l19.006 16.522-37.962 43.67 39.516 34.352 37.962-43.671 18.476 16.06a11.01 11.01 0 0 1 2.589 13.27l-26.52 51.755zM1152.826 453.6c-14.647-12.733-16.2-34.929-3.467-49.576 12.733-14.647 34.928-16.199 49.575-3.466 14.647 12.732 16.2 34.928 3.467 49.575-12.733 14.647-34.928 16.199-49.575 3.466zm284.71 22.601a10.66 10.66 0 0 1-9.976 5.763l-56.206-2.297-113.272 130.305c-15.45 17.772-42.38 19.655-60.151 4.206L987.179 430.975c-17.772-15.45-19.655-42.38-4.207-60.151L1292.13 15.18a42.637 42.637 0 0 1 60.416-3.976l210.222 182.743c17.771 15.449 19.655 42.38 4.206 60.15l-75.387 86.724c-5.348 6.152-14.67 6.803-20.822 1.456l-19.537-16.983c-6.075-5.367-6.685-14.628-1.367-20.745l53.101-61.086c7.659-8.908 6.72-22.32-2.103-30.076L1341.733 75.062c-8.908-7.658-22.32-6.72-30.075 2.103l-264.585 304.37c-7.725 8.886-6.783 22.352 2.103 30.076L1208.3 549.936c8.886 7.725 22.352 6.783 30.076-2.103l89.45-102.9-11.3-59.49a10.776 10.776 0 0 1 4.944-11.222l50.059-30.983a10.894 10.894 0 0 1 12.94 1.005l19.006 16.522-37.962 43.67 39.516 34.352 37.962-43.671 18.476 16.06a11.01 11.01 0 0 1 2.589 13.27l-26.52 51.755zM1016.826 1074.6c-14.647-12.733-16.2-34.929-3.467-49.576 12.733-14.647 34.928-16.199 49.575-3.466 14.647 12.732 16.2 34.928 3.467 49.575-12.733 14.647-34.928 16.199-49.575 3.466zm284.71 22.601a10.66 10.66 0 0 1-9.976 5.763l-56.206-2.297-113.272 130.305c-15.45 17.772-42.38 19.655-60.151 4.206l-210.752-183.203c-17.772-15.45-19.655-42.38-4.207-60.151L1156.13 636.18a42.637 42.637 0 0 1 60.416-3.976l210.222 182.743c17.771 15.449 19.655 42.38 4.206 60.15l-75.387 86.724c-5.348 6.152-14.67 6.803-20.822 1.456l-19.537-16.983c-6.075-5.367-6.685-14.628-1.367-20.745l53.101-61.086c7.659-8.908 6.72-22.32-2.103-30.076l-159.125-138.325c-8.908-7.658-22.32-6.72-30.075 2.103l-264.585 304.37c-7.725 8.886-6.783 22.352 2.103 30.076l159.124 138.325c8.886 7.725 22.352 6.783 30.076-2.103l89.45-102.9-11.3-59.49a10.776 10.776 0 0 1 4.944-11.222l50.059-30.983a10.894 10.894 0 0 1 12.94 1.005l19.006 16.522-37.962 43.67 39.516 34.352 37.962-43.671 18.476 16.06a11.01 11.01 0 0 1 2.589 13.27l-26.52 51.755z"/>
    </g>
</svg>
